<?xml version="1.0" encoding="UTF-8"?>
<svg width="204px" height="30px" viewBox="0 0 204 30" version="1.1" xmlns="http://www.w3.org/2000/svg" xmlns:xlink="http://www.w3.org/1999/xlink" xmlns:sketch="http://www.bohemiancoding.com/sketch/ns">
    <!-- Generator: Sketch 3.1.1 (8761) - http://www.bohemiancoding.com/sketch -->
    <title>Group</title>
    <desc>Created with Sketch.</desc>
    <defs></defs>
    <g id="Page-1" stroke="none" stroke-width="1" fill="none" fill-rule="evenodd" sketch:type="MSPage">
        <g id="Inside-Page" sketch:type="MSArtboardGroup" transform="translate(-847.000000, -47.000000)">
            <g id="Group" sketch:type="MSLayerGroup" transform="translate(847.000000, 47.000000)">
                <path d="M76.171404,14.6808187 C76.171404,10.8174813 73.102813,7.6744186 69.330856,7.6744186 L67.8205757,7.6744186 L65.7015075,12.0151658 L69.330856,12.0151658 C70.7659118,12.0151658 71.9334088,13.2110417 71.9334088,14.6808187 C71.9334088,16.1505957 70.7659118,17.3464715 69.330856,17.3464715 L63.4413847,17.3464715 L61.3222458,21.6872187 L69.330856,21.6872187 C73.102813,21.6872187 76.171404,18.544156 76.171404,14.6808187" id="Fill-1" fill="#6C2863" sketch:type="MSShapeGroup"></path>
                <path d="M194.77352,6.51324865 C195.764505,6.51324865 196.628702,5.95958634 197.089019,5.13817228 C197.549336,5.95958634 198.413534,6.51324865 199.404519,6.51324865 C200.878423,6.51324865 202.073184,5.28944732 202.073184,3.77988014 C202.073184,2.27024061 200.878423,1.04651163 199.404519,1.04651163 C198.413534,1.04651163 197.549336,1.60017393 197.089019,2.42158799 C196.628702,1.60017393 195.764505,1.04651163 194.77352,1.04651163 C193.299616,1.04651163 192.104854,2.27024061 192.104854,3.77988014 C192.104854,5.28944732 193.299616,6.51324865 194.77352,6.51324865" id="Fill-3" fill="#6C2863" sketch:type="MSShapeGroup"></path>
                <path d="M15.4914752,23.372093 C14.5004907,23.372093 13.6362928,23.9257553 13.1759759,24.7471694 C12.715659,23.9257553 11.8514611,23.372093 10.8604766,23.372093 C9.3865725,23.372093 8.19181101,24.5958943 8.19181101,26.1054615 C8.19181101,27.6151011 9.3865725,28.8389024 10.8604766,28.8389024 C11.8514611,28.8389024 12.715659,28.2851677 13.1759759,27.4637537 C13.6362928,28.2851677 14.5004907,28.8389024 15.4914752,28.8389024 C16.9653793,28.8389024 18.1601408,27.6151011 18.1601408,26.1054615 C18.1601408,24.5958943 16.9653793,23.372093 15.4914752,23.372093" id="Fill-5" fill="#6C2863" sketch:type="MSShapeGroup"></path>
                <path d="M169.230042,6.51324865 C170.703946,6.51324865 171.898707,5.28944732 171.898707,3.77988014 C171.898707,2.27024061 170.703946,1.04651163 169.230042,1.04651163 C167.756208,1.04651163 166.561376,2.27024061 166.561376,3.77988014 C166.561376,5.28944732 167.756208,6.51324865 169.230042,6.51324865" id="Fill-7" fill="#6C2863" sketch:type="MSShapeGroup"></path>
                <path d="M109.969172,23.0232558 C108.495268,23.0232558 107.300507,24.2470571 107.300507,25.7566243 C107.300507,27.2662639 108.495268,28.4900652 109.969172,28.4900652 C111.443006,28.4900652 112.637838,27.2662639 112.637838,25.7566243 C112.637838,24.2470571 111.443006,23.0232558 109.969172,23.0232558" id="Fill-9" fill="#6C2863" sketch:type="MSShapeGroup"></path>
                <path d="M196.6492,17.401684 C195.214215,17.401684 194.046648,16.2058805 194.046648,14.7360312 C194.046648,13.2662542 195.214215,12.0704507 196.6492,12.0704507 C198.084186,12.0704507 199.251753,13.2662542 199.251753,14.7360312 C199.251753,16.2058805 198.084186,17.401684 196.6492,17.401684 M169.338924,17.401684 C167.903868,17.401684 166.736371,16.2058805 166.736371,14.7360312 C166.736371,13.2662542 167.903868,12.0704507 169.338924,12.0704507 C170.773909,12.0704507 171.941406,13.2662542 171.941406,14.7360312 C171.941406,16.2058805 170.773909,17.401684 169.338924,17.401684 M196.6492,7.72970348 C192.877314,7.72970348 189.808652,10.8726938 189.808652,14.7360312 C189.808652,15.6793479 189.992016,16.5795465 190.323498,17.401684 L175.664555,17.401684 C175.996037,16.5795465 176.179401,15.6793479 176.179401,14.7360312 C176.179401,10.8726938 173.11081,7.72970348 169.338924,7.72970348 C165.566967,7.72970348 162.498376,10.8726938 162.498376,14.7360312 C162.498376,15.6793479 162.68174,16.5795465 163.013221,17.401684 L148.807108,17.401684 L148.807108,5.58139535 L144.569113,7.75191364 L144.569113,17.401684 L130.864214,17.401684 L130.864214,17.409208 C127.987109,17.5603383 125.691811,20.0053365 125.691811,22.9890938 C125.691811,26.0700115 128.139041,28.576576 131.147029,28.576576 L171.141767,28.576576 L173.260835,24.2358288 L131.147029,24.2358288 C130.475872,24.2358288 129.929806,23.6765235 129.929806,22.9890938 C129.929806,22.3016642 130.475872,21.7424312 131.147029,21.7424312 L144.569113,21.7424312 L150.920314,21.7424312 L169.338924,21.7424312 L196.6492,21.7424312 C200.421087,21.7424312 203.489749,18.5994409 203.489749,14.7360312 C203.489749,10.8726938 200.421087,7.72970348 196.6492,7.72970348" id="Fill-11" fill="#6C2863" sketch:type="MSShapeGroup"></path>
                <path d="M112.107338,14.6881256 L112.107338,7.6744186 L107.869343,9.84493689 L107.869343,14.6881256 C107.869343,16.1579026 106.701846,17.3537784 105.26679,17.3537784 L80.6152194,17.3537784 L71.8802168,27.1688589 L75.0351923,30.0668865 L82.5071311,21.6945256 L105.26679,21.6945256 C109.038747,21.6945256 112.107338,18.5514629 112.107338,14.6881256" id="Fill-13" fill="#6C2863" sketch:type="MSShapeGroup"></path>
                <path d="M182.035409,5.02328474 C182.547218,4.49906717 183.379984,4.49913951 183.891722,5.02328474 C184.40353,5.54750231 184.40353,6.40045913 183.891722,6.92460435 C183.379984,7.44882192 182.547218,7.44882192 182.035409,6.92460435 C181.523671,6.40045913 181.523601,5.54750231 182.035409,5.02328474 L182.035409,5.02328474 Z M180.674306,13.3162823 L185.403203,8.47273184 C186.748413,7.09490633 186.748413,4.85298275 185.403203,3.47522959 C184.057993,2.09740409 181.869139,2.09740409 180.523999,3.47522959 C179.178789,4.85298275 179.178789,7.09490633 180.523999,8.47273184 C180.852514,8.80921209 181.231532,9.06285642 181.636049,9.23503939 L179.162826,11.7681548 L180.674306,13.3162823 Z" id="Fill-15" fill="#F5457A" sketch:type="MSShapeGroup"></path>
                <path d="M103.020917,5.02328474 C103.532725,4.49906717 104.365491,4.49913951 104.877229,5.02328474 C105.389038,5.54750231 105.389038,6.40045913 104.877229,6.92460435 C104.365491,7.44882192 103.532725,7.44882192 103.020917,6.92460435 C102.509108,6.40045913 102.509108,5.54750231 103.020917,5.02328474 L103.020917,5.02328474 Z M101.659743,13.3162823 L106.38871,8.47273184 C107.73392,7.09490633 107.73392,4.85298275 106.38871,3.47522959 C105.0435,2.09740409 102.854646,2.09740409 101.509506,3.47522959 C100.164296,4.85298275 100.164296,7.09490633 101.509506,8.47273184 C101.838021,8.80921209 102.217039,9.06285642 102.621556,9.23503939 L100.148333,11.7681548 L101.659743,13.3162823 Z" id="Fill-17" fill="#F5457A" sketch:type="MSShapeGroup"></path>
                <path d="M55.8132519,1.46833008 L54.2277472,0 L49.7425357,5.08091694 L51.3280403,6.54924702 L55.8132519,1.46833008 Z" id="Fill-19" fill="#6C2863" sketch:type="MSShapeGroup"></path>
                <path d="M6.85844604,17.4717841 C5.42346086,17.4717841 4.25589318,16.2759806 4.25589318,14.8061313 C4.25589318,13.3363543 5.42346086,12.1405508 6.85844604,12.1405508 C8.29343121,12.1405508 9.46099889,13.3363543 9.46099889,14.8061313 C9.46099889,16.2759806 8.29343121,17.4717841 6.85844604,17.4717841 L6.85844604,17.4717841 Z M56.6467669,2.09302326 L48.2289783,11.5246711 L51.3840245,14.4226986 L53.1875033,12.4359386 C54.0262732,12.8789842 54.6015104,13.7747698 54.6015104,14.8061313 C54.6015104,16.2759806 53.4340134,17.4717841 51.9989576,17.4717841 L46.1094863,17.4717841 L45.2018489,17.4717841 L45.2018489,9.08249439 L40.9638537,11.2530127 L40.9638537,17.4717841 L13.1841483,17.4717841 C13.5156302,16.6496466 13.6989941,15.749448 13.6989941,14.8061313 C13.6989941,10.9427939 10.6303324,7.79980359 6.85844604,7.79980359 C3.08655967,7.79980359 0.017897971,10.9427939 0.017897971,14.8061313 L0.017897971,28.7358784 L4.25589318,28.7358784 L4.25589318,21.2852029 C5.0586401,21.6246493 5.93745904,21.8125313 6.85844604,21.8125313 L43.9903474,21.8125313 L51.9989576,21.8125313 L52.0260101,21.8125313 L52.0260101,21.8121696 C53.7295429,21.8053691 55.2881363,21.1576573 56.4834628,20.0925826 C56.4837454,20.0922932 56.4839573,20.0920762 56.4842398,20.0917868 C56.5251364,20.0553245 56.5656093,20.0184282 56.605729,19.9810254 C56.6063647,19.9803743 56.6069298,19.9797955 56.6075655,19.9791444 C56.6472613,19.9421034 56.6864628,19.9045559 56.7252405,19.8665744 C56.7265825,19.8652722 56.7278539,19.8638976 56.7291253,19.8626677 C56.7671966,19.8252649 56.8049148,19.7875004 56.8421385,19.7492295 C56.8440456,19.7472038 56.8459527,19.7451781 56.8479304,19.7431525 C56.8844478,19.7055327 56.920612,19.6675511 56.9562112,19.6291355 C56.958754,19.6263864 56.9612262,19.6236372 56.963769,19.6208881 C56.9987324,19.5830512 57.0334133,19.5448527 57.0675998,19.50622 C57.0706371,19.5028198 57.0736037,19.4992748 57.0766409,19.4958746 C57.1101211,19.4577483 57.1433893,19.4194051 57.1760925,19.3806277 C57.1796242,19.376504 57.1830146,19.3722356 57.1865462,19.3680396 C57.2186137,19.329841 57.2503987,19.291353 57.2816186,19.2525033 C57.2859272,19.2472221 57.2900239,19.2417962 57.2942619,19.2365149 C57.3246342,19.198461 57.354724,19.1602625 57.3843193,19.1216298 C57.3889105,19.1155528 57.393431,19.1094034 57.3980222,19.1033263 C57.4269818,19.0652001 57.4557296,19.0270015 57.4839122,18.9882965 C57.4890685,18.9812066 57.4940834,18.9738997 57.4992396,18.9668098 C57.5266453,18.9289006 57.5538392,18.8908468 57.5805385,18.8523588 C57.5859066,18.8446178 57.5910629,18.8367321 57.5963604,18.8289911 C57.6224947,18.7908649 57.6484877,18.7527386 57.6739157,18.714106 C57.6797782,18.7052075 57.6853583,18.6962366 57.6911502,18.6873381 C57.7158012,18.6495736 57.7403109,18.6117367 57.764185,18.5734658 C57.7704713,18.5633374 57.7765458,18.5531366 57.7827615,18.5430806 C57.8058586,18.5057501 57.8288144,18.468275 57.8512051,18.4305105 C57.8579859,18.4190075 57.8645548,18.4073599 57.871265,18.3957845 C57.8927375,18.3591052 57.9141394,18.3222812 57.9349762,18.2851678 C57.9416863,18.2732308 57.9480433,18.261149 57.9546829,18.249212 C57.9751665,18.2120986 57.9956502,18.1750575 58.0154981,18.1375101 C58.0219964,18.1252836 58.0282121,18.1128402 58.0345691,18.1005414 C58.0541345,18.0631386 58.0736293,18.0257358 58.092559,17.987899 C58.0994104,17.9741533 58.1059087,17.9601906 58.1126895,17.9463725 C58.1307009,17.9097655 58.1487124,17.8731586 58.1660882,17.8362622 C58.1733634,17.8208526 58.1801442,17.8052259 58.1872782,17.7897439 C58.2038063,17.7540774 58.2202639,17.7184109 58.2361564,17.6824551 C58.2435022,17.6658879 58.2504243,17.6490313 58.2575583,17.6323918 C58.2727444,17.5972317 58.2880718,17.562144 58.3026929,17.5266223 C58.3101094,17.5086805 58.3171021,17.4904494 58.3243773,17.4724353 C58.3382921,17.4379987 58.3522774,17.4036344 58.3656271,17.3689084 C58.3731143,17.3495198 58.3801069,17.3298417 58.3873822,17.3103807 C58.4000255,17.2766676 58.4128101,17.2430991 58.4249591,17.2092413 C58.4321637,17.1889845 58.4389444,17.1684383 58.4460078,17.1481091 C58.4575916,17.1146853 58.4693874,17.0813339 58.4804768,17.0476931 C58.4874695,17.0265682 58.4939678,17.0051538 58.5007485,16.9839565 C58.5113435,16.9508221 58.5221504,16.9177601 58.532251,16.8844087 C58.5388905,16.8625603 58.5450356,16.8404948 58.5514632,16.818574 C58.56114,16.785512 58.5710286,16.7525223 58.5802816,16.7192433 C58.586356,16.6973225 58.5919361,16.6751123 58.5977986,16.6531192 C58.6066984,16.6196231 58.6158807,16.5862717 58.6243567,16.5526309 C58.6302899,16.5290462 58.6356581,16.5051721 58.6413087,16.481515 C58.649149,16.4491765 58.6571306,16.4169102 58.6644764,16.3843546 C58.6704803,16.3579484 58.6757777,16.3311805 58.681499,16.3046296 C58.687856,16.2746784 58.6945662,16.2447996 58.70057,16.2147038 C58.7060088,16.1874294 58.7108118,16.1600103 58.7159681,16.1326636 C58.7215481,16.1027848 58.7274813,16.0730507 58.7327082,16.0430272 C58.7373699,16.0165486 58.7413254,15.9898531 58.7457047,15.9632298 C58.7507196,15.9322658 58.7560878,15.9013742 58.7607496,15.8703378 C58.7652701,15.8398802 58.7690843,15.809278 58.7732516,15.7786757 C58.7769952,15.7511843 58.7810919,15.7238376 58.784553,15.6962739 C58.7882965,15.6658886 58.7914044,15.635214 58.7947948,15.6046841 C58.7979026,15.5766139 58.8013637,15.5486161 58.804189,15.5204736 C58.8068024,15.4941397 58.8087802,15.4675165 58.8111111,15.4411103 C58.8139364,15.408627 58.8171149,15.3762161 58.8195871,15.3435881 C58.8218473,15.3124795 58.8234719,15.2810814 58.825379,15.2499003 C58.8270742,15.2218302 58.8291932,15.1939047 58.8306058,15.1657622 C58.8323717,15.129951 58.8333605,15.0939228 58.8345613,15.057967 C58.8354089,15.0340929 58.8366803,15.0103635 58.8372454,14.986417 C58.8387287,14.9264423 58.8395056,14.8663953 58.8395056,14.8061313 C58.8395056,12.523477 57.7680698,10.4925861 56.1134152,9.21257211 L59.9214658,5.01745699 L56.6467669,2.09302326 Z" id="Fill-25" fill="#6C2863" sketch:type="MSShapeGroup"></path>
            </g>
        </g>
    </g>
</svg>